<svg xmlns="http://www.w3.org/2000/svg" xmlns:xlink="http://www.w3.org/1999/xlink" width="500" zoomAndPan="magnify" viewBox="0 0 375 374.999991" height="500" preserveAspectRatio="xMidYMid meet" version="1.0"><defs><g/><clipPath id="bb6eb1f703"><path d="M 141 207 L 161 207 L 161 218 L 141 218 Z M 141 207 " clip-rule="nonzero"/></clipPath><clipPath id="d5435301e7"><path d="M 131.222656 197.261719 L 162.109375 177.34375 L 179.179688 203.816406 L 148.296875 223.734375 Z M 131.222656 197.261719 " clip-rule="nonzero"/></clipPath><clipPath id="2877aea023"><path d="M 131.222656 197.261719 L 162.109375 177.34375 L 179.179688 203.816406 L 148.296875 223.734375 Z M 131.222656 197.261719 " clip-rule="nonzero"/></clipPath><clipPath id="832f36d0cb"><path d="M 139 206 L 162 206 L 162 219 L 139 219 Z M 139 206 " clip-rule="nonzero"/></clipPath><clipPath id="5ae9ca07b2"><path d="M 131.222656 197.261719 L 162.109375 177.34375 L 179.179688 203.816406 L 148.296875 223.734375 Z M 131.222656 197.261719 " clip-rule="nonzero"/></clipPath><clipPath id="ac821f9f4d"><path d="M 131.222656 197.261719 L 162.109375 177.34375 L 179.179688 203.816406 L 148.296875 223.734375 Z M 131.222656 197.261719 " clip-rule="nonzero"/></clipPath><clipPath id="303afcb467"><path d="M 146 188 L 159 188 L 159 206 L 146 206 Z M 146 188 " clip-rule="nonzero"/></clipPath><clipPath id="547c887b1c"><path d="M 131.222656 197.261719 L 162.109375 177.34375 L 179.179688 203.816406 L 148.296875 223.734375 Z M 131.222656 197.261719 " clip-rule="nonzero"/></clipPath><clipPath id="db95002de5"><path d="M 131.222656 197.261719 L 162.109375 177.34375 L 179.179688 203.816406 L 148.296875 223.734375 Z M 131.222656 197.261719 " clip-rule="nonzero"/></clipPath><clipPath id="a661ed0ae4"><path d="M 145 187 L 160 187 L 160 207 L 145 207 Z M 145 187 " clip-rule="nonzero"/></clipPath><clipPath id="4fa4b4fe71"><path d="M 131.222656 197.261719 L 162.109375 177.34375 L 179.179688 203.816406 L 148.296875 223.734375 Z M 131.222656 197.261719 " clip-rule="nonzero"/></clipPath><clipPath id="cd6fa4d5d6"><path d="M 131.222656 197.261719 L 162.109375 177.34375 L 179.179688 203.816406 L 148.296875 223.734375 Z M 131.222656 197.261719 " clip-rule="nonzero"/></clipPath><clipPath id="ae938e6db3"><path d="M 162 191 L 173 191 L 173 212 L 162 212 Z M 162 191 " clip-rule="nonzero"/></clipPath><clipPath id="885083234c"><path d="M 131.222656 197.261719 L 162.109375 177.34375 L 179.179688 203.816406 L 148.296875 223.734375 Z M 131.222656 197.261719 " clip-rule="nonzero"/></clipPath><clipPath id="998e77677f"><path d="M 131.222656 197.261719 L 162.109375 177.34375 L 179.179688 203.816406 L 148.296875 223.734375 Z M 131.222656 197.261719 " clip-rule="nonzero"/></clipPath><clipPath id="963f1ade2e"><path d="M 161 190 L 174 190 L 174 213 L 161 213 Z M 161 190 " clip-rule="nonzero"/></clipPath><clipPath id="eb01591fe5"><path d="M 131.222656 197.261719 L 162.109375 177.34375 L 179.179688 203.816406 L 148.296875 223.734375 Z M 131.222656 197.261719 " clip-rule="nonzero"/></clipPath><clipPath id="986ef2b676"><path d="M 131.222656 197.261719 L 162.109375 177.34375 L 179.179688 203.816406 L 148.296875 223.734375 Z M 131.222656 197.261719 " clip-rule="nonzero"/></clipPath><clipPath id="3b883bd07a"><path d="M 78 197 L 120 197 L 120 234.574219 L 78 234.574219 Z M 78 197 " clip-rule="nonzero"/></clipPath></defs><g fill="#538c51" fill-opacity="1"><g transform="translate(187.23314, 224.051182)"><g><path d="M 12.328125 -44.09375 C 12.785156 -44.238281 13.175781 -44.3125 13.5 -44.3125 C 14.007812 -44.3125 14.398438 -44.195312 14.671875 -43.96875 C 14.859375 -43.820312 14.953125 -43.632812 14.953125 -43.40625 C 14.953125 -43.3125 14.929688 -43.195312 14.890625 -43.0625 C 14.742188 -42.144531 14.554688 -41.6875 14.328125 -41.6875 C 14.328125 -41.6875 14.304688 -41.707031 14.265625 -41.75 C 14.171875 -41.800781 14.007812 -41.828125 13.78125 -41.828125 C 13.550781 -41.828125 13.171875 -41.769531 12.640625 -41.65625 C 12.117188 -41.539062 11.648438 -41.320312 11.234375 -41 C 9.992188 -39.945312 9.234375 -37.832031 8.953125 -34.65625 L 8.8125 -32.59375 L 10.890625 -32.59375 C 12.222656 -32.59375 13.367188 -32.6875 14.328125 -32.875 C 14.742188 -32.957031 15.019531 -33.007812 15.15625 -33.03125 C 15.289062 -33.0625 15.40625 -33.078125 15.5 -33.078125 C 15.59375 -33.078125 15.695312 -33.050781 15.8125 -33 C 15.925781 -32.957031 15.984375 -32.878906 15.984375 -32.765625 C 15.984375 -32.648438 15.960938 -32.523438 15.921875 -32.390625 C 15.773438 -31.972656 15.175781 -31.535156 14.125 -31.078125 C 13.070312 -30.617188 12.015625 -30.273438 10.953125 -30.046875 C 9.898438 -29.910156 9.289062 -29.796875 9.125 -29.703125 C 8.96875 -29.609375 8.863281 -29.304688 8.8125 -28.796875 C 8.726562 -28.066406 8.570312 -25.101562 8.34375 -19.90625 C 8.34375 -16.238281 8.238281 -13.769531 8.03125 -12.5 C 7.820312 -11.238281 7.488281 -10.128906 7.03125 -9.171875 C 6.476562 -8.066406 6.0625 -7.515625 5.78125 -7.515625 C 5.695312 -7.515625 5.609375 -7.5625 5.515625 -7.65625 C 5.460938 -7.925781 5.367188 -9.710938 5.234375 -13.015625 C 5.140625 -16.234375 5.023438 -19.222656 4.890625 -21.984375 L 4.96875 -29.703125 L 2.6875 -29.765625 C 1.125 -29.859375 0.273438 -29.972656 0.140625 -30.109375 C 0.046875 -30.203125 0 -30.296875 0 -30.390625 C 0 -30.660156 0.34375 -30.957031 1.03125 -31.28125 C 2.039062 -31.789062 3.097656 -32.046875 4.203125 -32.046875 C 4.660156 -32.046875 4.96875 -32.21875 5.125 -32.5625 C 5.289062 -32.90625 5.46875 -33.789062 5.65625 -35.21875 C 6.019531 -37.644531 6.765625 -39.601562 7.890625 -41.09375 C 9.015625 -42.59375 10.492188 -43.59375 12.328125 -44.09375 Z M 12.328125 -44.09375 "/></g></g></g><g fill="#538c51" fill-opacity="1"><g transform="translate(202.599752, 224.051182)"><g><path d="M 13.296875 -20.046875 C 13.253906 -20.273438 13.148438 -20.4375 12.984375 -20.53125 C 12.828125 -20.625 12.539062 -20.648438 12.125 -20.609375 C 10.75 -20.609375 9.53125 -20.285156 8.46875 -19.640625 C 7.414062 -18.992188 6.726562 -18.191406 6.40625 -17.234375 C 6.21875 -16.453125 6.132812 -15.613281 6.15625 -14.71875 C 6.1875 -13.820312 6.296875 -13.097656 6.484375 -12.546875 C 6.710938 -12.128906 6.90625 -11.863281 7.0625 -11.75 C 7.21875 -11.632812 7.550781 -11.578125 8.0625 -11.578125 C 8.800781 -11.578125 9.59375 -11.78125 10.4375 -12.1875 C 11.289062 -12.601562 12.035156 -13.226562 12.671875 -14.0625 L 13.71875 -15.359375 L 13.578125 -17.4375 C 13.484375 -18.8125 13.390625 -19.679688 13.296875 -20.046875 Z M 9.4375 -30.734375 C 10.582031 -31.097656 11.785156 -31.195312 13.046875 -31.03125 C 14.316406 -30.875 15.273438 -30.546875 15.921875 -30.046875 C 16.242188 -29.765625 16.472656 -29.566406 16.609375 -29.453125 C 16.742188 -29.335938 16.890625 -29.097656 17.046875 -28.734375 C 17.210938 -28.367188 17.316406 -28.046875 17.359375 -27.765625 C 17.410156 -27.492188 17.46875 -26.988281 17.53125 -26.25 C 17.601562 -25.519531 17.648438 -24.804688 17.671875 -24.109375 C 17.691406 -23.421875 17.726562 -22.34375 17.78125 -20.875 C 17.875 -17.84375 17.960938 -15.867188 18.046875 -14.953125 C 18.140625 -14.035156 18.300781 -13.347656 18.53125 -12.890625 C 18.675781 -12.609375 18.835938 -12.363281 19.015625 -12.15625 C 19.203125 -11.957031 19.34375 -11.859375 19.4375 -11.859375 C 19.707031 -11.859375 20.097656 -12.128906 20.609375 -12.671875 C 20.921875 -13.085938 21.144531 -13.328125 21.28125 -13.390625 C 21.425781 -13.460938 21.566406 -13.429688 21.703125 -13.296875 C 21.890625 -13.066406 21.726562 -12.398438 21.21875 -11.296875 C 20.664062 -10.148438 20.300781 -9.484375 20.125 -9.296875 C 19.664062 -8.796875 18.847656 -8.726562 17.671875 -9.09375 C 16.503906 -9.457031 15.617188 -10.398438 15.015625 -11.921875 C 14.742188 -12.566406 14.5625 -12.863281 14.46875 -12.8125 C 14.375 -12.8125 13.867188 -12.285156 12.953125 -11.234375 C 12.535156 -10.816406 12.097656 -10.398438 11.640625 -9.984375 C 11.179688 -9.578125 10.789062 -9.304688 10.46875 -9.171875 C 9.320312 -8.617188 8.148438 -8.398438 6.953125 -8.515625 C 5.765625 -8.628906 4.6875 -9.078125 3.71875 -9.859375 C 2.988281 -10.410156 2.492188 -10.945312 2.234375 -11.46875 C 1.984375 -12 1.859375 -12.722656 1.859375 -13.640625 C 1.859375 -15.660156 2.613281 -17.453125 4.125 -19.015625 C 5.644531 -20.578125 7.644531 -21.679688 10.125 -22.328125 C 11.644531 -22.648438 12.539062 -22.8125 12.8125 -22.8125 C 13.132812 -22.8125 13.316406 -22.9375 13.359375 -23.1875 C 13.410156 -23.4375 13.4375 -24.179688 13.4375 -25.421875 C 13.4375 -26.753906 13.410156 -27.546875 13.359375 -27.796875 C 13.316406 -28.054688 13.113281 -28.253906 12.75 -28.390625 C 12.332031 -28.617188 11.550781 -28.734375 10.40625 -28.734375 C 9.300781 -28.691406 8.378906 -28.539062 7.640625 -28.28125 C 6.910156 -28.03125 5.992188 -27.535156 4.890625 -26.796875 C 4.566406 -26.566406 4.40625 -26.59375 4.40625 -26.875 C 4.40625 -27.101562 4.59375 -27.46875 4.96875 -27.96875 C 5.332031 -28.476562 5.960938 -29.007812 6.859375 -29.5625 C 7.753906 -30.113281 8.613281 -30.503906 9.4375 -30.734375 Z M 9.4375 -30.734375 "/></g></g></g><g fill="#538c51" fill-opacity="1"><g transform="translate(225.132855, 224.051182)"><g><path d="M 7.03125 -30.53125 C 7.125 -30.613281 7.71875 -30.65625 8.8125 -30.65625 C 9.59375 -30.65625 10.582031 -30.632812 11.78125 -30.59375 C 13.664062 -30.59375 14.972656 -30.554688 15.703125 -30.484375 C 16.441406 -30.421875 16.972656 -30.296875 17.296875 -30.109375 C 17.941406 -29.785156 18.273438 -29.519531 18.296875 -29.3125 C 18.316406 -29.113281 18.328125 -29.015625 18.328125 -29.015625 C 18.328125 -28.597656 18.097656 -27.976562 17.640625 -27.15625 C 16.992188 -25.957031 15.75 -23.988281 13.90625 -21.25 C 12.070312 -18.519531 10.648438 -16.535156 9.640625 -15.296875 C 8.492188 -13.867188 7.921875 -13.085938 7.921875 -12.953125 C 7.921875 -12.859375 8.453125 -12.742188 9.515625 -12.609375 C 10.566406 -12.472656 11.320312 -12.3125 11.78125 -12.125 C 12.375 -11.988281 13.109375 -11.921875 13.984375 -11.921875 C 14.210938 -11.921875 14.691406 -11.929688 15.421875 -11.953125 C 16.160156 -11.972656 16.898438 -12.144531 17.640625 -12.46875 C 18.234375 -12.695312 18.671875 -12.8125 18.953125 -12.8125 C 19.085938 -12.8125 19.203125 -12.785156 19.296875 -12.734375 C 19.390625 -12.691406 19.4375 -12.535156 19.4375 -12.265625 C 19.4375 -12.128906 19.410156 -11.945312 19.359375 -11.71875 C 19.265625 -11.300781 18.929688 -10.78125 18.359375 -10.15625 C 17.785156 -9.539062 17.363281 -9.234375 17.09375 -9.234375 C 17.039062 -9.234375 16.304688 -9.140625 14.890625 -8.953125 C 14.242188 -8.859375 13.691406 -8.8125 13.234375 -8.8125 C 13.140625 -8.8125 12.929688 -8.820312 12.609375 -8.84375 C 12.285156 -8.875 11.710938 -8.957031 10.890625 -9.09375 C 9.234375 -9.457031 7.738281 -9.640625 6.40625 -9.640625 C 5.488281 -9.640625 4.617188 -9.550781 3.796875 -9.375 C 3.054688 -9.238281 2.476562 -9.171875 2.0625 -9.171875 C 1.695312 -9.171875 1.515625 -9.238281 1.515625 -9.375 C 1.515625 -9.738281 2.113281 -10.585938 3.3125 -11.921875 C 4.6875 -13.484375 6.328125 -15.59375 8.234375 -18.25 C 10.140625 -20.914062 11.734375 -23.351562 13.015625 -25.5625 L 13.578125 -26.671875 L 8.0625 -26.59375 C 5.300781 -26.59375 3.664062 -26.613281 3.15625 -26.65625 C 2.65625 -26.707031 2.269531 -26.894531 2 -27.21875 C 1.769531 -27.445312 1.65625 -27.695312 1.65625 -27.96875 C 1.65625 -28.0625 1.710938 -28.234375 1.828125 -28.484375 C 1.941406 -28.742188 2.363281 -29.125 3.09375 -29.625 C 3.832031 -30.082031 4.660156 -30.335938 5.578125 -30.390625 C 6.453125 -30.429688 6.9375 -30.476562 7.03125 -30.53125 Z M 7.03125 -30.53125 "/></g></g></g><g fill="#538c51" fill-opacity="1"><g transform="translate(245.874341, 224.051182)"><g/></g></g><g fill="#538c51" fill-opacity="1"><g transform="translate(262.825858, 224.051182)"><g><path d="M 12.890625 -27.5 C 12.285156 -27.675781 11.859375 -27.773438 11.609375 -27.796875 C 11.359375 -27.828125 10.976562 -27.726562 10.46875 -27.5 C 9.96875 -27.3125 9.335938 -26.988281 8.578125 -26.53125 C 7.816406 -26.070312 7.300781 -25.65625 7.03125 -25.28125 C 6.84375 -25.050781 6.75 -23.078125 6.75 -19.359375 C 6.707031 -18.171875 6.695312 -17.265625 6.71875 -16.640625 C 6.738281 -16.015625 6.769531 -15.40625 6.8125 -14.8125 C 6.863281 -14.21875 6.910156 -13.78125 6.953125 -13.5 C 7.003906 -13.226562 7.097656 -12.976562 7.234375 -12.75 C 7.367188 -12.519531 7.515625 -12.359375 7.671875 -12.265625 C 7.835938 -12.171875 8.0625 -12.078125 8.34375 -11.984375 C 8.707031 -11.804688 8.992188 -11.726562 9.203125 -11.75 C 9.410156 -11.769531 9.742188 -11.921875 10.203125 -12.203125 C 10.890625 -12.515625 11.597656 -13.097656 12.328125 -13.953125 C 13.066406 -14.804688 13.644531 -15.644531 14.0625 -16.46875 C 14.425781 -17.289062 14.695312 -18.359375 14.875 -19.671875 C 15.0625 -20.984375 15.066406 -22.164062 14.890625 -23.21875 C 14.703125 -24.320312 14.421875 -25.273438 14.046875 -26.078125 C 13.679688 -26.878906 13.296875 -27.351562 12.890625 -27.5 Z M 4.34375 -44.3125 C 4.570312 -44.539062 4.859375 -44.550781 5.203125 -44.34375 C 5.546875 -44.132812 5.851562 -44.097656 6.125 -44.234375 C 6.21875 -44.285156 6.359375 -41.347656 6.546875 -35.421875 C 6.679688 -30.367188 6.816406 -27.816406 6.953125 -27.765625 C 7.003906 -27.628906 7.421875 -27.90625 8.203125 -28.59375 C 8.890625 -29.144531 9.644531 -29.625 10.46875 -30.03125 C 11.300781 -30.445312 11.96875 -30.679688 12.46875 -30.734375 C 12.976562 -30.734375 13.632812 -30.570312 14.4375 -30.25 C 15.238281 -29.925781 15.894531 -29.535156 16.40625 -29.078125 C 17.039062 -28.660156 17.632812 -27.832031 18.1875 -26.59375 C 18.5625 -25.8125 18.789062 -25.164062 18.875 -24.65625 C 18.96875 -24.15625 19.015625 -23.332031 19.015625 -22.1875 C 19.015625 -20.4375 18.851562 -19.015625 18.53125 -17.921875 C 17.976562 -16.035156 17.148438 -14.253906 16.046875 -12.578125 C 14.953125 -10.898438 13.851562 -9.765625 12.75 -9.171875 C 11.832031 -8.703125 11.050781 -8.457031 10.40625 -8.4375 C 9.757812 -8.414062 8.796875 -8.660156 7.515625 -9.171875 C 6.828125 -9.398438 6.226562 -9.46875 5.71875 -9.375 C 5.125 -9.238281 4.617188 -9.421875 4.203125 -9.921875 C 3.785156 -10.429688 3.441406 -11.28125 3.171875 -12.46875 C 2.984375 -13.34375 2.863281 -14.46875 2.8125 -15.84375 C 2.769531 -17.226562 2.796875 -20.125 2.890625 -24.53125 C 2.984375 -29.71875 3.164062 -34.195312 3.4375 -37.96875 C 3.71875 -41.738281 4.019531 -43.851562 4.34375 -44.3125 Z M 4.34375 -44.3125 "/></g></g></g><g fill="#538c51" fill-opacity="1"><g transform="translate(283.153898, 224.051182)"><g><path d="M 10.609375 -30.796875 C 11.390625 -31.171875 12.125 -31.359375 12.8125 -31.359375 C 12.945312 -31.359375 13.242188 -31.332031 13.703125 -31.28125 C 14.171875 -31.238281 14.929688 -30.960938 15.984375 -30.453125 C 17.640625 -29.671875 18.601562 -28.316406 18.875 -26.390625 C 18.875 -26.203125 18.875 -26.019531 18.875 -25.84375 C 18.875 -24.832031 18.503906 -23.84375 17.765625 -22.875 C 17.035156 -21.914062 15.753906 -21 13.921875 -20.125 C 12.910156 -19.613281 12.148438 -19.3125 11.640625 -19.21875 C 11.140625 -19.132812 10.242188 -19.066406 8.953125 -19.015625 L 6.265625 -18.875 L 6.265625 -17.578125 C 6.265625 -16.609375 6.457031 -15.664062 6.84375 -14.75 C 7.238281 -13.832031 7.738281 -13.140625 8.34375 -12.671875 C 9.125 -12.078125 9.90625 -11.710938 10.6875 -11.578125 C 11.46875 -11.441406 12.0625 -11.375 12.46875 -11.375 C 13.019531 -11.375 13.523438 -11.441406 13.984375 -11.578125 C 14.671875 -11.804688 15.460938 -12.285156 16.359375 -13.015625 C 17.253906 -13.753906 17.976562 -14.492188 18.53125 -15.234375 C 18.71875 -15.503906 18.890625 -15.742188 19.046875 -15.953125 C 19.210938 -16.160156 19.335938 -16.296875 19.421875 -16.359375 C 19.515625 -16.429688 19.585938 -16.46875 19.640625 -16.46875 C 19.679688 -16.46875 19.703125 -16.46875 19.703125 -16.46875 C 19.929688 -16.332031 20.046875 -16.078125 20.046875 -15.703125 C 20.046875 -15.617188 20.035156 -15.445312 20.015625 -15.1875 C 19.992188 -14.9375 19.84375 -14.628906 19.5625 -14.265625 C 19.15625 -13.753906 18.953125 -13.429688 18.953125 -13.296875 C 18.953125 -13.160156 18.492188 -12.472656 17.578125 -11.234375 C 16.972656 -10.359375 16.441406 -9.734375 15.984375 -9.359375 C 15.523438 -8.992188 14.984375 -8.742188 14.359375 -8.609375 C 13.742188 -8.472656 12.789062 -8.40625 11.5 -8.40625 C 9.894531 -8.40625 8.644531 -8.566406 7.75 -8.890625 C 6.851562 -9.210938 5.878906 -9.898438 4.828125 -10.953125 C 3.585938 -12.097656 2.816406 -13.253906 2.515625 -14.421875 C 2.210938 -15.597656 2.0625 -16.648438 2.0625 -17.578125 C 2.0625 -18.492188 2.15625 -19.457031 2.34375 -20.46875 C 2.894531 -23.445312 4.132812 -25.945312 6.0625 -27.96875 C 6.800781 -28.707031 7.441406 -29.257812 7.984375 -29.625 C 8.535156 -30 9.410156 -30.390625 10.609375 -30.796875 Z M 14.46875 -27.5625 C 14.007812 -28.113281 13.503906 -28.390625 12.953125 -28.390625 C 12.953125 -28.390625 12.789062 -28.378906 12.46875 -28.359375 C 12.144531 -28.335938 11.457031 -28.070312 10.40625 -27.5625 C 8.570312 -26.644531 7.304688 -25.242188 6.609375 -23.359375 C 6.429688 -22.765625 6.34375 -22.304688 6.34375 -21.984375 C 6.34375 -21.796875 6.375 -21.644531 6.4375 -21.53125 C 6.507812 -21.414062 6.726562 -21.359375 7.09375 -21.359375 C 7.320312 -21.359375 7.578125 -21.382812 7.859375 -21.4375 C 9.460938 -21.613281 11.09375 -22.273438 12.75 -23.421875 C 14.257812 -24.484375 15.015625 -25.453125 15.015625 -26.328125 C 15.015625 -26.734375 14.832031 -27.144531 14.46875 -27.5625 Z M 14.46875 -27.5625 "/></g></g></g><g fill="#538c51" fill-opacity="1"><g transform="translate(305.066844, 224.051182)"><g><path d="M 24.25 -31.765625 C 24.707031 -32.085938 25.238281 -32.25 25.84375 -32.25 C 25.9375 -32.25 26.1875 -32.222656 26.59375 -32.171875 C 27.007812 -32.128906 27.398438 -31.878906 27.765625 -31.421875 C 28.273438 -30.867188 28.550781 -30.25 28.59375 -29.5625 C 28.644531 -28.875 28.671875 -28.34375 28.671875 -27.96875 C 28.671875 -26.78125 28.578125 -24.988281 28.390625 -22.59375 C 28.066406 -18.601562 27.90625 -15.847656 27.90625 -14.328125 C 27.90625 -13.597656 27.953125 -13.160156 28.046875 -13.015625 C 28.085938 -12.972656 28.15625 -12.953125 28.25 -12.953125 C 28.300781 -12.953125 28.367188 -12.972656 28.453125 -13.015625 C 28.546875 -13.109375 28.601562 -13.164062 28.625 -13.1875 C 28.65625 -13.21875 28.691406 -13.234375 28.734375 -13.234375 C 28.734375 -13.234375 28.742188 -13.207031 28.765625 -13.15625 C 28.785156 -13.113281 28.796875 -13.046875 28.796875 -12.953125 C 28.796875 -12.859375 28.796875 -12.722656 28.796875 -12.546875 C 28.796875 -12.035156 28.566406 -11.265625 28.109375 -10.234375 C 27.648438 -9.203125 27.332031 -8.640625 27.15625 -8.546875 C 27.101562 -8.546875 27.03125 -8.546875 26.9375 -8.546875 C 26.664062 -8.546875 26.285156 -8.691406 25.796875 -8.984375 C 25.316406 -9.285156 24.960938 -9.664062 24.734375 -10.125 C 24.640625 -10.726562 24.582031 -11.546875 24.5625 -12.578125 C 24.539062 -13.609375 24.53125 -14.535156 24.53125 -15.359375 C 24.53125 -17.109375 24.550781 -19.519531 24.59375 -22.59375 C 24.59375 -23.238281 24.59375 -23.816406 24.59375 -24.328125 C 24.59375 -26.992188 24.503906 -28.414062 24.328125 -28.59375 C 24.234375 -28.726562 24.070312 -28.796875 23.84375 -28.796875 C 23.476562 -28.796875 22.847656 -28.554688 21.953125 -28.078125 C 21.054688 -27.597656 20.304688 -26.921875 19.703125 -26.046875 L 18.46875 -24.46875 L 18.390625 -19.5625 C 18.253906 -18.09375 18.1875 -16.898438 18.1875 -15.984375 C 18.1875 -15.066406 18.117188 -14.351562 17.984375 -13.84375 C 17.847656 -13.34375 17.707031 -13 17.5625 -12.8125 C 17.425781 -12.632812 17.242188 -12.546875 17.015625 -12.546875 C 16.648438 -12.546875 16.398438 -12.453125 16.265625 -12.265625 C 16.171875 -12.171875 16.078125 -12.125 15.984375 -12.125 C 15.941406 -12.125 15.875 -12.148438 15.78125 -12.203125 C 15.59375 -12.285156 15.335938 -12.328125 15.015625 -12.328125 C 14.972656 -12.328125 14.953125 -12.328125 14.953125 -12.328125 C 14.722656 -12.328125 14.5625 -12.488281 14.46875 -12.8125 C 14.425781 -13.226562 14.40625 -14.378906 14.40625 -16.265625 C 14.40625 -17.222656 14.40625 -18.367188 14.40625 -19.703125 C 14.40625 -23.285156 14.359375 -25.171875 14.265625 -25.359375 C 14.210938 -25.453125 14.1875 -25.632812 14.1875 -25.90625 C 14.1875 -26.09375 14.1875 -26.273438 14.1875 -26.453125 C 14.050781 -26.921875 13.820312 -27.15625 13.5 -27.15625 C 13.457031 -27.15625 13.332031 -27.140625 13.125 -27.109375 C 12.914062 -27.085938 12.351562 -26.734375 11.4375 -26.046875 C 10.0625 -25.078125 9.242188 -23.847656 8.984375 -22.359375 C 8.734375 -20.867188 8.378906 -18.078125 7.921875 -13.984375 C 7.972656 -13.203125 8 -12.535156 8 -11.984375 C 8 -11.347656 7.953125 -10.878906 7.859375 -10.578125 C 7.765625 -10.273438 7.601562 -9.960938 7.375 -9.640625 C 7.007812 -9.234375 6.503906 -9.03125 5.859375 -9.03125 C 5.765625 -9.03125 5.671875 -9.03125 5.578125 -9.03125 C 5.117188 -9.03125 4.820312 -8.914062 4.6875 -8.6875 C 4.632812 -8.5 4.566406 -8.40625 4.484375 -8.40625 C 4.484375 -8.40625 4.457031 -8.414062 4.40625 -8.4375 C 4.363281 -8.457031 4.226562 -8.582031 4 -8.8125 C 3.445312 -9.28125 3.171875 -10.566406 3.171875 -12.671875 C 3.171875 -14.054688 3.285156 -15.804688 3.515625 -17.921875 C 3.703125 -19.566406 3.804688 -21.03125 3.828125 -22.3125 C 3.847656 -23.601562 3.859375 -24.363281 3.859375 -24.59375 C 3.859375 -26.4375 3.765625 -27.5625 3.578125 -27.96875 C 3.492188 -28.207031 3.425781 -28.335938 3.375 -28.359375 C 3.332031 -28.378906 3.3125 -28.390625 3.3125 -28.390625 C 3.21875 -28.390625 3.101562 -28.34375 2.96875 -28.25 C 2.820312 -28.113281 2.679688 -28.046875 2.546875 -28.046875 C 2.503906 -28.046875 2.4375 -28.054688 2.34375 -28.078125 C 2.25 -28.097656 2.191406 -28.164062 2.171875 -28.28125 C 2.148438 -28.394531 2.140625 -28.5 2.140625 -28.59375 C 2.140625 -28.726562 2.160156 -28.910156 2.203125 -29.140625 C 2.296875 -29.648438 2.660156 -30.125 3.296875 -30.5625 C 3.941406 -31 4.519531 -31.21875 5.03125 -31.21875 C 5.675781 -31.21875 6.25 -30.867188 6.75 -30.171875 C 7.257812 -29.484375 7.675781 -28.546875 8 -27.359375 C 8.269531 -26.160156 8.472656 -25.5625 8.609375 -25.5625 C 8.742188 -25.5625 8.8125 -25.628906 8.8125 -25.765625 C 8.8125 -25.992188 9.546875 -26.75 11.015625 -28.03125 C 12.492188 -29.320312 13.484375 -30.082031 13.984375 -30.3125 C 14.398438 -30.539062 14.769531 -30.65625 15.09375 -30.65625 C 15.226562 -30.65625 15.34375 -30.632812 15.4375 -30.59375 C 15.851562 -30.457031 16.253906 -30.085938 16.640625 -29.484375 C 17.035156 -28.890625 17.347656 -28.226562 17.578125 -27.5 C 17.804688 -26.757812 17.921875 -26.390625 17.921875 -26.390625 C 18.003906 -26.390625 18.828125 -27.191406 20.390625 -28.796875 C 22.410156 -30.453125 23.695312 -31.441406 24.25 -31.765625 Z M 24.25 -31.765625 "/></g></g></g><g clip-path="url(#bb6eb1f703)"><g clip-path="url(#d5435301e7)"><g clip-path="url(#2877aea023)"><path fill="#538c51" d="M 141.03125 210.257812 C 141.03125 210.257812 152.433594 201.746094 160.789062 214.523438 C 147.90625 222.71875 141.03125 210.257812 141.03125 210.257812 Z M 141.03125 210.257812 " fill-opacity="1" fill-rule="nonzero"/></g></g></g><g clip-path="url(#832f36d0cb)"><g clip-path="url(#5ae9ca07b2)"><g clip-path="url(#ac821f9f4d)"><path fill="#538c51" d="M 161.9375 214.773438 L 161.234375 215.21875 C 157.078125 217.863281 153.074219 218.71875 149.324219 217.761719 C 143.460938 216.265625 140.433594 210.882812 140.308594 210.65625 L 139.960938 210.027344 L 140.535156 209.597656 C 140.535156 209.597656 140.699219 209.476562 141 209.28125 C 143.035156 207.96875 153.601562 202.023438 161.480469 214.070312 Z M 142.160156 210.5 C 143.113281 211.890625 145.707031 215.140625 149.75 216.167969 C 152.820312 216.945312 156.136719 216.308594 159.621094 214.269531 C 153.070312 205.027344 144.9375 208.792969 142.160156 210.5 Z M 142.160156 210.5 " fill-opacity="1" fill-rule="nonzero"/></g></g></g><g clip-path="url(#303afcb467)"><g clip-path="url(#547c887b1c)"><g clip-path="url(#db95002de5)"><path fill="#538c51" d="M 147.101562 188.464844 C 147.101562 188.464844 161.183594 190.511719 158.058594 205.457031 C 143.152344 202.140625 147.101562 188.464844 147.101562 188.464844 Z M 147.101562 188.464844 " fill-opacity="1" fill-rule="nonzero"/></g></g></g><g clip-path="url(#a661ed0ae4)"><g clip-path="url(#4fa4b4fe71)"><g clip-path="url(#cd6fa4d5d6)"><path fill="#538c51" d="M 158.691406 206.441406 L 157.878906 206.261719 C 153.070312 205.191406 149.632812 202.964844 147.660156 199.636719 C 144.570312 194.433594 146.234375 188.488281 146.308594 188.238281 L 146.507812 187.546875 L 147.21875 187.648438 C 147.476562 187.6875 153.578125 188.625 157.046875 193.585938 C 159.261719 196.753906 159.871094 200.804688 158.863281 205.625 Z M 147.726562 189.441406 C 147.417969 191.097656 146.953125 195.226562 149.085938 198.808594 C 150.707031 201.53125 153.503906 203.425781 157.40625 204.449219 C 158.085938 200.46875 157.511719 197.140625 155.703125 194.542969 C 153.316406 191.125 149.367188 189.839844 147.726562 189.441406 Z M 147.726562 189.441406 " fill-opacity="1" fill-rule="nonzero"/></g></g></g><g clip-path="url(#ae938e6db3)"><g clip-path="url(#885083234c)"><g clip-path="url(#998e77677f)"><path fill="#538c51" d="M 169.789062 191.707031 C 169.789062 191.707031 157.332031 198.585938 165.523438 211.46875 C 178.304688 203.113281 169.789062 191.707031 169.789062 191.707031 Z M 169.789062 191.707031 " fill-opacity="1" fill-rule="nonzero"/></g></g></g><g clip-path="url(#963f1ade2e)"><g clip-path="url(#eb01591fe5)"><g clip-path="url(#986ef2b676)"><path fill="#538c51" d="M 165.277344 212.617188 L 164.828125 211.914062 C 157.101562 199.761719 166.875 192.59375 168.914062 191.277344 C 169.214844 191.085938 169.390625 190.988281 169.390625 190.988281 L 170.019531 190.640625 L 170.453125 191.214844 C 170.609375 191.425781 174.257812 196.402344 173.203125 202.363281 C 172.53125 206.167969 170.097656 209.464844 165.976562 212.160156 Z M 169.546875 192.835938 C 166.847656 194.660156 160.058594 200.519531 165.777344 210.300781 C 169.074219 207.960938 171.027344 205.199219 171.578125 202.074219 C 172.308594 197.957031 170.421875 194.273438 169.546875 192.835938 Z M 169.546875 192.835938 " fill-opacity="1" fill-rule="nonzero"/></g></g></g><path fill="#538c51" d="M 92.824219 185.035156 L 112.433594 173.066406 L 121.21875 190.371094 C 123.34375 199.824219 111.710938 203.296875 102.371094 202.730469 Z M 92.824219 185.035156 " fill-opacity="1" fill-rule="evenodd"/><g clip-path="url(#3b883bd07a)"><path fill="#538c51" d="M 88.367188 197.394531 L 78.050781 216 L 88.367188 234.867188 L 88.621094 227.320312 L 98.042969 227.320312 C 101.480469 227.625 105.9375 225.324219 107.59375 221.984375 L 119.691406 199.347656 C 115.703125 203.378906 110.570312 204.421875 104.667969 204.421875 L 88.75 204.421875 Z M 88.367188 197.394531 " fill-opacity="1" fill-rule="evenodd"/></g><path fill="#538c51" d="M 65.320312 174.457031 L 45.558594 162.75 L 56.101562 146.503906 C 63.164062 140.019531 71.777344 148.722656 75.828125 157.339844 Z M 65.320312 174.457031 " fill-opacity="1" fill-rule="evenodd"/><path fill="#538c51" d="M 78.0625 172.441406 L 98.988281 172.625 L 110.125 154.253906 L 103.542969 157.6875 L 98.96875 149.269531 C 97.5625 146.050781 93.429688 143.1875 89.769531 143.328125 L 64.527344 143.511719 C 69.914062 145.117188 73.292969 149.195312 76.160156 154.46875 L 83.886719 168.6875 L 78.058594 172.441406 Z M 78.0625 172.441406 " fill-opacity="1" fill-rule="evenodd"/><path fill="#538c51" d="M 30.4375 173.488281 L 36.5625 178.273438 L 30.796875 189.3125 C 27.917969 194.402344 32.867188 199.363281 36.019531 201.085938 C 39.125 202.785156 43.945312 202.988281 48.445312 202.925781 L 56.550781 189.679688 L 62.671875 192.992188 L 52.046875 173.304688 Z M 30.4375 173.488281 " fill-opacity="1" fill-rule="evenodd"/><path fill="#538c51" d="M 31.339844 199.0625 L 44.484375 223.351562 C 47.125 226.726562 52.109375 227.523438 57.269531 227.398438 L 71.136719 227.398438 L 71.136719 204.402344 L 44.84375 204.21875 C 40.761719 204.460938 35.421875 203.605469 31.339844 199.066406 Z M 31.339844 199.0625 " fill-opacity="1" fill-rule="evenodd"/><g fill="#7cc529" fill-opacity="1"><g transform="translate(135.333279, 174.074844)"><g><path d="M 3.285156 0 L 12.246094 0 L 12.246094 -8.828125 L 15.617188 -8.828125 L 20.054688 0 L 30.21875 0 L 24.492188 -10.472656 C 27.777344 -12.289062 29.640625 -15.574219 29.640625 -19.921875 C 29.640625 -26.800781 24.980469 -31.058594 17.4375 -31.058594 L 3.285156 -31.058594 Z M 12.070312 -15.972656 L 12.070312 -23.738281 L 16.238281 -23.738281 C 19.078125 -23.738281 20.632812 -22.363281 20.632812 -19.878906 C 20.632812 -17.394531 19.078125 -15.972656 16.238281 -15.972656 Z M 12.070312 -15.972656 "/></g></g></g><g fill="#7cc529" fill-opacity="1"><g transform="translate(167.277478, 174.074844)"><g><path d="M 14.644531 0.664062 C 20.722656 0.664062 25.378906 -2.351562 27.464844 -7.585938 L 19.210938 -7.585938 C 18.28125 -6.476562 16.640625 -5.769531 14.820312 -5.769531 C 12.425781 -5.769531 10.425781 -7.054688 9.804688 -9.628906 L 27.910156 -9.628906 C 28.351562 -18.371094 23.074219 -24.136719 14.6875 -24.136719 C 6.832031 -24.136719 1.375 -19.078125 1.375 -11.757812 C 1.375 -4.394531 6.789062 0.664062 14.644531 0.664062 Z M 9.851562 -14.242188 C 10.558594 -16.507812 12.425781 -17.75 14.777344 -17.75 C 17.347656 -17.75 19.078125 -16.417969 19.789062 -14.242188 Z M 9.851562 -14.242188 "/></g></g></g><g fill="#7cc529" fill-opacity="1"><g transform="translate(196.515294, 174.074844)"><g><path d="M 14.730469 0.664062 C 21.785156 0.664062 26.933594 -3.417969 28.042969 -9.851562 L 19.96875 -9.851562 C 19.125 -7.71875 17.214844 -6.390625 14.820312 -6.390625 C 11.804688 -6.390625 9.71875 -8.5625 9.71875 -11.757812 C 9.71875 -14.910156 11.804688 -17.082031 14.820312 -17.082031 C 17.039062 -17.082031 18.859375 -15.972656 19.835938 -14.066406 L 27.820312 -14.066406 C 26.800781 -20.1875 21.652344 -24.136719 14.730469 -24.136719 C 6.878906 -24.136719 1.375 -18.992188 1.375 -11.757812 C 1.375 -4.4375 6.832031 0.664062 14.730469 0.664062 Z M 14.730469 0.664062 "/></g></g></g><g fill="#7cc529" fill-opacity="1"><g transform="translate(225.841844, 174.074844)"><g><path d="M 2.972656 0 L 11.492188 0 L 11.492188 -23.472656 L 2.972656 -23.472656 Z M 2.128906 -31.503906 C 2.128906 -28.574219 4.257812 -26.535156 7.234375 -26.535156 C 10.207031 -26.535156 12.335938 -28.574219 12.335938 -31.503906 C 12.335938 -34.433594 10.207031 -36.429688 7.234375 -36.429688 C 4.257812 -36.429688 2.128906 -34.433594 2.128906 -31.503906 Z M 2.128906 -31.503906 "/></g></g></g><g fill="#7cc529" fill-opacity="1"><g transform="translate(240.305467, 174.074844)"><g><path d="M 14.730469 0.664062 C 21.785156 0.664062 26.933594 -3.417969 28.042969 -9.851562 L 19.96875 -9.851562 C 19.125 -7.71875 17.214844 -6.390625 14.820312 -6.390625 C 11.804688 -6.390625 9.71875 -8.5625 9.71875 -11.757812 C 9.71875 -14.910156 11.804688 -17.082031 14.820312 -17.082031 C 17.039062 -17.082031 18.859375 -15.972656 19.835938 -14.066406 L 27.820312 -14.066406 C 26.800781 -20.1875 21.652344 -24.136719 14.730469 -24.136719 C 6.878906 -24.136719 1.375 -18.992188 1.375 -11.757812 C 1.375 -4.4375 6.832031 0.664062 14.730469 0.664062 Z M 14.730469 0.664062 "/></g></g></g><g fill="#7cc529" fill-opacity="1"><g transform="translate(269.632017, 174.074844)"><g><path d="M 2.972656 0 L 11.492188 0 L 11.492188 -32.835938 L 2.972656 -32.835938 Z M 2.972656 0 "/></g></g></g><g fill="#7cc529" fill-opacity="1"><g transform="translate(284.09564, 174.074844)"><g><path d="M 10.78125 0.53125 C 14.15625 0.53125 16.996094 -0.578125 18.992188 -2.574219 L 19.921875 0 L 26.046875 0 L 26.046875 -13.667969 C 26.046875 -20.367188 21.832031 -24.136719 14.289062 -24.136719 C 7.71875 -24.136719 3.773438 -21.164062 3.0625 -15.75 L 11.046875 -15.75 C 11.269531 -17.128906 12.601562 -18.058594 14.332031 -18.058594 C 16.238281 -18.058594 17.75 -16.949219 17.75 -15.398438 L 17.75 -14.066406 L 9.851562 -14.066406 C 5.015625 -14.066406 1.90625 -11.179688 1.90625 -6.878906 C 1.90625 -2.308594 5.367188 0.53125 10.78125 0.53125 Z M 10.25 -7.277344 C 10.25 -8.609375 11.402344 -9.40625 13.222656 -9.40625 L 17.835938 -9.40625 C 17.835938 -6.832031 15.886719 -5.101562 13.3125 -5.101562 C 11.492188 -5.101562 10.25 -5.945312 10.25 -7.277344 Z M 10.25 -7.277344 "/></g></g></g><g fill="#7cc529" fill-opacity="1"><g transform="translate(312.66795, 174.074844)"><g><path d="M 2.972656 0 L 11.492188 0 L 11.492188 -10.027344 C 11.492188 -14.019531 13.222656 -15.839844 17.039062 -15.839844 L 19.746094 -15.839844 L 19.746094 -23.472656 L 16.996094 -23.472656 C 13.710938 -23.472656 11.625 -22.585938 10.160156 -20.542969 L 9.097656 -23.472656 L 2.972656 -23.472656 Z M 2.972656 0 "/></g></g></g></svg>