<svg xmlns="http://www.w3.org/2000/svg" xmlns:xlink="http://www.w3.org/1999/xlink" width="500" zoomAndPan="magnify" viewBox="0 0 375 374.999991" height="500" preserveAspectRatio="xMidYMid meet" version="1.0"><defs><g/><clipPath id="010cad79d7"><path d="M 80 275 L 104 275 L 104 287 L 80 287 Z M 80 275 " clip-rule="nonzero"/></clipPath><clipPath id="7948f3034d"><path d="M 69.222656 263.707031 L 104.515625 240.945312 L 124.027344 271.199219 L 88.734375 293.960938 Z M 69.222656 263.707031 " clip-rule="nonzero"/></clipPath><clipPath id="a8c8bea282"><path d="M 69.222656 263.707031 L 104.515625 240.945312 L 124.027344 271.199219 L 88.734375 293.960938 Z M 69.222656 263.707031 " clip-rule="nonzero"/></clipPath><clipPath id="147329c4e0"><path d="M 79 274 L 105 274 L 105 288 L 79 288 Z M 79 274 " clip-rule="nonzero"/></clipPath><clipPath id="7e15589719"><path d="M 69.222656 263.707031 L 104.515625 240.945312 L 124.027344 271.199219 L 88.734375 293.960938 Z M 69.222656 263.707031 " clip-rule="nonzero"/></clipPath><clipPath id="b3db79c463"><path d="M 69.222656 263.707031 L 104.515625 240.945312 L 124.027344 271.199219 L 88.734375 293.960938 Z M 69.222656 263.707031 " clip-rule="nonzero"/></clipPath><clipPath id="1816f2acb7"><path d="M 86 253 L 101 253 L 101 274 L 86 274 Z M 86 253 " clip-rule="nonzero"/></clipPath><clipPath id="1ffdc27f8a"><path d="M 69.222656 263.707031 L 104.515625 240.945312 L 124.027344 271.199219 L 88.734375 293.960938 Z M 69.222656 263.707031 " clip-rule="nonzero"/></clipPath><clipPath id="cb0d60dd99"><path d="M 69.222656 263.707031 L 104.515625 240.945312 L 124.027344 271.199219 L 88.734375 293.960938 Z M 69.222656 263.707031 " clip-rule="nonzero"/></clipPath><clipPath id="3d3905d51d"><path d="M 85 252 L 102 252 L 102 275 L 85 275 Z M 85 252 " clip-rule="nonzero"/></clipPath><clipPath id="ade141b93c"><path d="M 69.222656 263.707031 L 104.515625 240.945312 L 124.027344 271.199219 L 88.734375 293.960938 Z M 69.222656 263.707031 " clip-rule="nonzero"/></clipPath><clipPath id="82edb27fc7"><path d="M 69.222656 263.707031 L 104.515625 240.945312 L 124.027344 271.199219 L 88.734375 293.960938 Z M 69.222656 263.707031 " clip-rule="nonzero"/></clipPath><clipPath id="751c060b23"><path d="M 105 257 L 117 257 L 117 280 L 105 280 Z M 105 257 " clip-rule="nonzero"/></clipPath><clipPath id="4326f84632"><path d="M 69.222656 263.707031 L 104.515625 240.945312 L 124.027344 271.199219 L 88.734375 293.960938 Z M 69.222656 263.707031 " clip-rule="nonzero"/></clipPath><clipPath id="d192432747"><path d="M 69.222656 263.707031 L 104.515625 240.945312 L 124.027344 271.199219 L 88.734375 293.960938 Z M 69.222656 263.707031 " clip-rule="nonzero"/></clipPath><clipPath id="f352dfb944"><path d="M 104 256 L 118 256 L 118 282 L 104 282 Z M 104 256 " clip-rule="nonzero"/></clipPath><clipPath id="bea08a33bb"><path d="M 69.222656 263.707031 L 104.515625 240.945312 L 124.027344 271.199219 L 88.734375 293.960938 Z M 69.222656 263.707031 " clip-rule="nonzero"/></clipPath><clipPath id="042422e9c4"><path d="M 69.222656 263.707031 L 104.515625 240.945312 L 124.027344 271.199219 L 88.734375 293.960938 Z M 69.222656 263.707031 " clip-rule="nonzero"/></clipPath><clipPath id="5d5e2486fb"><path d="M 190 132 L 248 132 L 248 183.246094 L 190 183.246094 Z M 190 132 " clip-rule="nonzero"/></clipPath></defs><g fill="#ffffff" fill-opacity="1"><g transform="translate(133.321779, 294.368344)"><g><path d="M 14.109375 -50.46875 C 14.640625 -50.625 15.085938 -50.703125 15.453125 -50.703125 C 16.035156 -50.703125 16.484375 -50.570312 16.796875 -50.3125 C 17.003906 -50.15625 17.109375 -49.945312 17.109375 -49.6875 C 17.109375 -49.582031 17.082031 -49.445312 17.03125 -49.28125 C 16.875 -48.226562 16.664062 -47.703125 16.40625 -47.703125 C 16.40625 -47.703125 16.378906 -47.726562 16.328125 -47.78125 C 16.222656 -47.84375 16.035156 -47.875 15.765625 -47.875 C 15.503906 -47.875 15.070312 -47.804688 14.46875 -47.671875 C 13.863281 -47.535156 13.328125 -47.285156 12.859375 -46.921875 C 11.429688 -45.710938 10.5625 -43.296875 10.25 -39.671875 L 10.09375 -37.296875 L 12.453125 -37.296875 C 13.984375 -37.296875 15.300781 -37.398438 16.40625 -37.609375 C 16.875 -37.722656 17.1875 -37.789062 17.34375 -37.8125 C 17.5 -37.84375 17.632812 -37.859375 17.75 -37.859375 C 17.851562 -37.859375 17.96875 -37.828125 18.09375 -37.765625 C 18.226562 -37.710938 18.296875 -37.617188 18.296875 -37.484375 C 18.296875 -37.359375 18.269531 -37.21875 18.21875 -37.0625 C 18.0625 -36.59375 17.378906 -36.09375 16.171875 -35.5625 C 14.960938 -35.039062 13.75 -34.644531 12.53125 -34.375 C 11.320312 -34.21875 10.625 -34.085938 10.4375 -33.984375 C 10.257812 -33.878906 10.144531 -33.539062 10.09375 -32.96875 C 9.988281 -32.125 9.804688 -28.734375 9.546875 -22.796875 C 9.546875 -18.585938 9.425781 -15.757812 9.1875 -14.3125 C 8.945312 -12.863281 8.566406 -11.585938 8.046875 -10.484375 C 7.410156 -9.222656 6.9375 -8.59375 6.625 -8.59375 C 6.519531 -8.59375 6.414062 -8.644531 6.3125 -8.75 C 6.257812 -9.0625 6.15625 -11.113281 6 -14.90625 C 5.882812 -18.582031 5.75 -22 5.59375 -25.15625 L 5.671875 -33.984375 L 3.078125 -34.0625 C 1.285156 -34.164062 0.3125 -34.300781 0.15625 -34.46875 C 0.0507812 -34.570312 0 -34.675781 0 -34.78125 C 0 -35.09375 0.394531 -35.429688 1.1875 -35.796875 C 2.34375 -36.378906 3.550781 -36.671875 4.8125 -36.671875 C 5.332031 -36.671875 5.6875 -36.867188 5.875 -37.265625 C 6.0625 -37.660156 6.257812 -38.671875 6.46875 -40.296875 C 6.882812 -43.085938 7.738281 -45.335938 9.03125 -47.046875 C 10.320312 -48.753906 12.015625 -49.894531 14.109375 -50.46875 Z M 14.109375 -50.46875 "/></g></g></g><g fill="#ffffff" fill-opacity="1"><g transform="translate(150.90862, 294.368344)"><g><path d="M 15.21875 -22.953125 C 15.164062 -23.210938 15.046875 -23.394531 14.859375 -23.5 C 14.679688 -23.601562 14.351562 -23.628906 13.875 -23.578125 C 12.300781 -23.578125 10.910156 -23.207031 9.703125 -22.46875 C 8.492188 -21.738281 7.703125 -20.820312 7.328125 -19.71875 C 7.117188 -18.820312 7.023438 -17.859375 7.046875 -16.828125 C 7.078125 -15.804688 7.195312 -14.984375 7.40625 -14.359375 C 7.675781 -13.878906 7.898438 -13.570312 8.078125 -13.4375 C 8.265625 -13.3125 8.644531 -13.25 9.21875 -13.25 C 10.0625 -13.25 10.96875 -13.484375 11.9375 -13.953125 C 12.914062 -14.429688 13.773438 -15.144531 14.515625 -16.09375 L 15.6875 -17.578125 L 15.53125 -19.953125 C 15.425781 -21.523438 15.320312 -22.523438 15.21875 -22.953125 Z M 10.796875 -35.171875 C 12.117188 -35.585938 13.5 -35.703125 14.9375 -35.515625 C 16.382812 -35.335938 17.476562 -34.957031 18.21875 -34.375 C 18.582031 -34.0625 18.84375 -33.835938 19 -33.703125 C 19.15625 -33.578125 19.328125 -33.300781 19.515625 -32.875 C 19.703125 -32.457031 19.820312 -32.09375 19.875 -31.78125 C 19.925781 -31.46875 19.988281 -30.890625 20.0625 -30.046875 C 20.144531 -29.203125 20.195312 -28.382812 20.21875 -27.59375 C 20.25 -26.8125 20.289062 -25.578125 20.34375 -23.890625 C 20.445312 -20.421875 20.550781 -18.160156 20.65625 -17.109375 C 20.757812 -16.054688 20.945312 -15.269531 21.21875 -14.75 C 21.375 -14.4375 21.554688 -14.160156 21.765625 -13.921875 C 21.972656 -13.679688 22.128906 -13.5625 22.234375 -13.5625 C 22.554688 -13.5625 23.003906 -13.878906 23.578125 -14.515625 C 23.941406 -14.984375 24.203125 -15.253906 24.359375 -15.328125 C 24.523438 -15.410156 24.6875 -15.375 24.84375 -15.21875 C 25.050781 -14.957031 24.863281 -14.195312 24.28125 -12.9375 C 23.65625 -11.625 23.238281 -10.859375 23.03125 -10.640625 C 22.5 -10.066406 21.5625 -9.988281 20.21875 -10.40625 C 18.882812 -10.832031 17.875 -11.910156 17.1875 -13.640625 C 16.875 -14.378906 16.664062 -14.722656 16.5625 -14.671875 C 16.457031 -14.671875 15.878906 -14.066406 14.828125 -12.859375 C 14.347656 -12.378906 13.84375 -11.898438 13.3125 -11.421875 C 12.789062 -10.953125 12.347656 -10.640625 11.984375 -10.484375 C 10.671875 -9.859375 9.332031 -9.609375 7.96875 -9.734375 C 6.601562 -9.867188 5.367188 -10.382812 4.265625 -11.28125 C 3.421875 -11.90625 2.851562 -12.519531 2.5625 -13.125 C 2.269531 -13.726562 2.125 -14.554688 2.125 -15.609375 C 2.125 -17.921875 2.988281 -19.972656 4.71875 -21.765625 C 6.457031 -23.554688 8.75 -24.816406 11.59375 -25.546875 C 13.320312 -25.921875 14.347656 -26.109375 14.671875 -26.109375 C 15.035156 -26.109375 15.242188 -26.25 15.296875 -26.53125 C 15.347656 -26.820312 15.375 -27.675781 15.375 -29.09375 C 15.375 -30.625 15.347656 -31.53125 15.296875 -31.8125 C 15.242188 -32.101562 15.007812 -32.328125 14.59375 -32.484375 C 14.113281 -32.753906 13.21875 -32.890625 11.90625 -32.890625 C 10.644531 -32.835938 9.59375 -32.664062 8.75 -32.375 C 7.90625 -32.082031 6.851562 -31.515625 5.59375 -30.671875 C 5.226562 -30.410156 5.046875 -30.4375 5.046875 -30.75 C 5.046875 -31.019531 5.253906 -31.441406 5.671875 -32.015625 C 6.097656 -32.597656 6.820312 -33.203125 7.84375 -33.828125 C 8.875 -34.460938 9.859375 -34.910156 10.796875 -35.171875 Z M 10.796875 -35.171875 "/></g></g></g><g fill="#ffffff" fill-opacity="1"><g transform="translate(176.697397, 294.368344)"><g><path d="M 8.046875 -34.9375 C 8.148438 -35.039062 8.832031 -35.09375 10.09375 -35.09375 C 10.988281 -35.09375 12.117188 -35.066406 13.484375 -35.015625 C 15.640625 -35.015625 17.132812 -34.972656 17.96875 -34.890625 C 18.8125 -34.816406 19.421875 -34.675781 19.796875 -34.46875 C 20.523438 -34.09375 20.90625 -33.785156 20.9375 -33.546875 C 20.96875 -33.316406 20.984375 -33.203125 20.984375 -33.203125 C 20.984375 -32.722656 20.71875 -32.015625 20.1875 -31.078125 C 19.445312 -29.703125 18.023438 -27.453125 15.921875 -24.328125 C 13.828125 -21.203125 12.203125 -18.925781 11.046875 -17.5 C 9.722656 -15.875 9.0625 -14.984375 9.0625 -14.828125 C 9.0625 -14.722656 9.664062 -14.59375 10.875 -14.4375 C 12.09375 -14.269531 12.960938 -14.082031 13.484375 -13.875 C 14.171875 -13.71875 15.015625 -13.640625 16.015625 -13.640625 C 16.273438 -13.640625 16.820312 -13.648438 17.65625 -13.671875 C 18.5 -13.703125 19.34375 -13.90625 20.1875 -14.28125 C 20.875 -14.539062 21.375 -14.671875 21.6875 -14.671875 C 21.84375 -14.671875 21.972656 -14.644531 22.078125 -14.59375 C 22.179688 -14.539062 22.234375 -14.351562 22.234375 -14.03125 C 22.234375 -13.875 22.207031 -13.664062 22.15625 -13.40625 C 22.050781 -12.9375 21.671875 -12.34375 21.015625 -11.625 C 20.359375 -10.914062 19.875 -10.5625 19.5625 -10.5625 C 19.507812 -10.5625 18.664062 -10.457031 17.03125 -10.25 C 16.289062 -10.144531 15.660156 -10.09375 15.140625 -10.09375 C 15.035156 -10.09375 14.796875 -10.101562 14.421875 -10.125 C 14.054688 -10.15625 13.398438 -10.25 12.453125 -10.40625 C 10.566406 -10.832031 8.859375 -11.046875 7.328125 -11.046875 C 6.273438 -11.046875 5.28125 -10.9375 4.34375 -10.71875 C 3.5 -10.5625 2.835938 -10.484375 2.359375 -10.484375 C 1.941406 -10.484375 1.734375 -10.5625 1.734375 -10.71875 C 1.734375 -11.144531 2.414062 -12.117188 3.78125 -13.640625 C 5.363281 -15.429688 7.242188 -17.847656 9.421875 -20.890625 C 11.609375 -23.941406 13.4375 -26.726562 14.90625 -29.25 L 15.53125 -30.515625 L 9.21875 -30.4375 C 6.070312 -30.4375 4.207031 -30.460938 3.625 -30.515625 C 3.050781 -30.566406 2.601562 -30.78125 2.28125 -31.15625 C 2.019531 -31.414062 1.890625 -31.703125 1.890625 -32.015625 C 1.890625 -32.117188 1.953125 -32.316406 2.078125 -32.609375 C 2.210938 -32.898438 2.703125 -33.332031 3.546875 -33.90625 C 4.390625 -34.4375 5.335938 -34.726562 6.390625 -34.78125 C 7.390625 -34.832031 7.941406 -34.882812 8.046875 -34.9375 Z M 8.046875 -34.9375 "/></g></g></g><g fill="#ffffff" fill-opacity="1"><g transform="translate(200.435697, 294.368344)"><g/></g></g><g fill="#ffffff" fill-opacity="1"><g transform="translate(219.836438, 294.368344)"><g><path d="M 14.75 -31.46875 C 14.0625 -31.675781 13.570312 -31.789062 13.28125 -31.8125 C 13 -31.84375 12.566406 -31.726562 11.984375 -31.46875 C 11.410156 -31.257812 10.6875 -30.890625 9.8125 -30.359375 C 8.945312 -29.835938 8.359375 -29.363281 8.046875 -28.9375 C 7.835938 -28.675781 7.734375 -26.414062 7.734375 -22.15625 C 7.679688 -20.789062 7.664062 -19.753906 7.6875 -19.046875 C 7.71875 -18.335938 7.757812 -17.640625 7.8125 -16.953125 C 7.863281 -16.265625 7.914062 -15.765625 7.96875 -15.453125 C 8.019531 -15.140625 8.125 -14.847656 8.28125 -14.578125 C 8.4375 -14.316406 8.601562 -14.132812 8.78125 -14.03125 C 8.96875 -13.925781 9.222656 -13.820312 9.546875 -13.71875 C 9.960938 -13.507812 10.285156 -13.414062 10.515625 -13.4375 C 10.753906 -13.46875 11.140625 -13.640625 11.671875 -13.953125 C 12.460938 -14.328125 13.273438 -15 14.109375 -15.96875 C 14.953125 -16.9375 15.613281 -17.894531 16.09375 -18.84375 C 16.507812 -19.789062 16.820312 -21.015625 17.03125 -22.515625 C 17.238281 -24.015625 17.238281 -25.367188 17.03125 -26.578125 C 16.820312 -27.835938 16.503906 -28.925781 16.078125 -29.84375 C 15.660156 -30.769531 15.21875 -31.3125 14.75 -31.46875 Z M 4.96875 -50.703125 C 5.226562 -50.960938 5.554688 -50.972656 5.953125 -50.734375 C 6.347656 -50.503906 6.703125 -50.46875 7.015625 -50.625 C 7.117188 -50.675781 7.273438 -47.3125 7.484375 -40.53125 C 7.648438 -34.75 7.8125 -31.832031 7.96875 -31.78125 C 8.019531 -31.625 8.492188 -31.941406 9.390625 -32.734375 C 10.171875 -33.359375 11.035156 -33.90625 11.984375 -34.375 C 12.929688 -34.851562 13.695312 -35.117188 14.28125 -35.171875 C 14.851562 -35.171875 15.597656 -34.984375 16.515625 -34.609375 C 17.441406 -34.242188 18.191406 -33.800781 18.765625 -33.28125 C 19.503906 -32.800781 20.1875 -31.851562 20.8125 -30.4375 C 21.238281 -29.539062 21.503906 -28.800781 21.609375 -28.21875 C 21.710938 -27.644531 21.765625 -26.703125 21.765625 -25.390625 C 21.765625 -23.390625 21.582031 -21.757812 21.21875 -20.5 C 20.582031 -18.34375 19.632812 -16.304688 18.375 -14.390625 C 17.113281 -12.472656 15.851562 -11.171875 14.59375 -10.484375 C 13.539062 -9.960938 12.644531 -9.6875 11.90625 -9.65625 C 11.164062 -9.632812 10.0625 -9.910156 8.59375 -10.484375 C 7.800781 -10.742188 7.117188 -10.820312 6.546875 -10.71875 C 5.859375 -10.5625 5.273438 -10.769531 4.796875 -11.34375 C 4.328125 -11.925781 3.9375 -12.90625 3.625 -14.28125 C 3.414062 -15.269531 3.285156 -16.550781 3.234375 -18.125 C 3.179688 -19.707031 3.207031 -23.023438 3.3125 -28.078125 C 3.414062 -34.015625 3.625 -39.140625 3.9375 -43.453125 C 4.257812 -47.765625 4.601562 -50.179688 4.96875 -50.703125 Z M 4.96875 -50.703125 "/></g></g></g><g fill="#ffffff" fill-opacity="1"><g transform="translate(243.101555, 294.368344)"><g><path d="M 12.140625 -35.25 C 13.035156 -35.664062 13.878906 -35.875 14.671875 -35.875 C 14.828125 -35.875 15.164062 -35.847656 15.6875 -35.796875 C 16.21875 -35.742188 17.085938 -35.429688 18.296875 -34.859375 C 20.191406 -33.960938 21.296875 -32.410156 21.609375 -30.203125 C 21.609375 -29.992188 21.609375 -29.785156 21.609375 -29.578125 C 21.609375 -28.421875 21.1875 -27.289062 20.34375 -26.1875 C 19.5 -25.082031 18.023438 -24.03125 15.921875 -23.03125 C 14.765625 -22.445312 13.894531 -22.101562 13.3125 -22 C 12.738281 -21.894531 11.71875 -21.816406 10.25 -21.765625 L 7.171875 -21.609375 L 7.171875 -20.109375 C 7.171875 -19.003906 7.394531 -17.925781 7.84375 -16.875 C 8.289062 -15.820312 8.859375 -15.035156 9.546875 -14.515625 C 10.429688 -13.828125 11.320312 -13.40625 12.21875 -13.25 C 13.113281 -13.09375 13.800781 -13.015625 14.28125 -13.015625 C 14.90625 -13.015625 15.484375 -13.09375 16.015625 -13.25 C 16.796875 -13.507812 17.695312 -14.0625 18.71875 -14.90625 C 19.75 -15.75 20.582031 -16.585938 21.21875 -17.421875 C 21.425781 -17.742188 21.617188 -18.019531 21.796875 -18.25 C 21.984375 -18.488281 22.128906 -18.644531 22.234375 -18.71875 C 22.335938 -18.800781 22.414062 -18.84375 22.46875 -18.84375 C 22.519531 -18.84375 22.546875 -18.84375 22.546875 -18.84375 C 22.816406 -18.6875 22.953125 -18.398438 22.953125 -17.984375 C 22.953125 -17.878906 22.9375 -17.679688 22.90625 -17.390625 C 22.882812 -17.097656 22.710938 -16.742188 22.390625 -16.328125 C 21.921875 -15.742188 21.6875 -15.375 21.6875 -15.21875 C 21.6875 -15.0625 21.160156 -14.273438 20.109375 -12.859375 C 19.421875 -11.859375 18.8125 -11.144531 18.28125 -10.71875 C 17.757812 -10.300781 17.144531 -10.015625 16.4375 -9.859375 C 15.726562 -9.703125 14.640625 -9.625 13.171875 -9.625 C 11.328125 -9.625 9.890625 -9.804688 8.859375 -10.171875 C 7.835938 -10.535156 6.722656 -11.320312 5.515625 -12.53125 C 4.097656 -13.851562 3.21875 -15.179688 2.875 -16.515625 C 2.53125 -17.859375 2.359375 -19.054688 2.359375 -20.109375 C 2.359375 -21.160156 2.46875 -22.265625 2.6875 -23.421875 C 3.3125 -26.835938 4.726562 -29.703125 6.9375 -32.015625 C 7.78125 -32.859375 8.515625 -33.488281 9.140625 -33.90625 C 9.773438 -34.332031 10.773438 -34.78125 12.140625 -35.25 Z M 16.5625 -31.546875 C 16.03125 -32.171875 15.453125 -32.484375 14.828125 -32.484375 C 14.828125 -32.484375 14.640625 -32.46875 14.265625 -32.4375 C 13.898438 -32.414062 13.113281 -32.117188 11.90625 -31.546875 C 9.800781 -30.492188 8.359375 -28.890625 7.578125 -26.734375 C 7.359375 -26.046875 7.25 -25.519531 7.25 -25.15625 C 7.25 -24.945312 7.285156 -24.773438 7.359375 -24.640625 C 7.441406 -24.515625 7.695312 -24.453125 8.125 -24.453125 C 8.382812 -24.453125 8.671875 -24.476562 8.984375 -24.53125 C 10.828125 -24.738281 12.695312 -25.5 14.59375 -26.8125 C 16.320312 -28.019531 17.1875 -29.125 17.1875 -30.125 C 17.1875 -30.59375 16.976562 -31.066406 16.5625 -31.546875 Z M 16.5625 -31.546875 "/></g></g></g><g fill="#ffffff" fill-opacity="1"><g transform="translate(268.180571, 294.368344)"><g><path d="M 27.765625 -36.359375 C 28.285156 -36.722656 28.890625 -36.90625 29.578125 -36.90625 C 29.679688 -36.90625 29.96875 -36.878906 30.4375 -36.828125 C 30.914062 -36.773438 31.363281 -36.484375 31.78125 -35.953125 C 32.351562 -35.328125 32.664062 -34.617188 32.71875 -33.828125 C 32.78125 -33.035156 32.8125 -32.429688 32.8125 -32.015625 C 32.8125 -30.648438 32.703125 -28.597656 32.484375 -25.859375 C 32.117188 -21.285156 31.9375 -18.132812 31.9375 -16.40625 C 31.9375 -15.5625 31.988281 -15.0625 32.09375 -14.90625 C 32.144531 -14.851562 32.222656 -14.828125 32.328125 -14.828125 C 32.378906 -14.828125 32.457031 -14.851562 32.5625 -14.90625 C 32.675781 -15.007812 32.742188 -15.070312 32.765625 -15.09375 C 32.796875 -15.125 32.835938 -15.140625 32.890625 -15.140625 C 32.890625 -15.140625 32.898438 -15.113281 32.921875 -15.0625 C 32.953125 -15.007812 32.96875 -14.929688 32.96875 -14.828125 C 32.96875 -14.722656 32.96875 -14.566406 32.96875 -14.359375 C 32.96875 -13.773438 32.703125 -12.890625 32.171875 -11.703125 C 31.648438 -10.523438 31.285156 -9.882812 31.078125 -9.78125 C 31.015625 -9.78125 30.929688 -9.78125 30.828125 -9.78125 C 30.515625 -9.78125 30.082031 -9.945312 29.53125 -10.28125 C 28.976562 -10.625 28.570312 -11.0625 28.3125 -11.59375 C 28.207031 -12.28125 28.140625 -13.210938 28.109375 -14.390625 C 28.085938 -15.578125 28.078125 -16.640625 28.078125 -17.578125 C 28.078125 -19.578125 28.101562 -22.335938 28.15625 -25.859375 C 28.15625 -26.597656 28.15625 -27.257812 28.15625 -27.84375 C 28.15625 -30.882812 28.050781 -32.515625 27.84375 -32.734375 C 27.726562 -32.890625 27.539062 -32.96875 27.28125 -32.96875 C 26.863281 -32.96875 26.140625 -32.691406 25.109375 -32.140625 C 24.085938 -31.585938 23.234375 -30.8125 22.546875 -29.8125 L 21.140625 -28 L 21.0625 -22.390625 C 20.894531 -20.710938 20.8125 -19.347656 20.8125 -18.296875 C 20.8125 -17.242188 20.734375 -16.425781 20.578125 -15.84375 C 20.421875 -15.269531 20.265625 -14.878906 20.109375 -14.671875 C 19.953125 -14.460938 19.742188 -14.359375 19.484375 -14.359375 C 19.054688 -14.359375 18.765625 -14.25 18.609375 -14.03125 C 18.503906 -13.925781 18.398438 -13.875 18.296875 -13.875 C 18.242188 -13.875 18.164062 -13.898438 18.0625 -13.953125 C 17.851562 -14.054688 17.5625 -14.109375 17.1875 -14.109375 C 17.132812 -14.109375 17.109375 -14.109375 17.109375 -14.109375 C 16.847656 -14.109375 16.664062 -14.296875 16.5625 -14.671875 C 16.507812 -15.140625 16.484375 -16.453125 16.484375 -18.609375 C 16.484375 -19.710938 16.484375 -21.023438 16.484375 -22.546875 C 16.484375 -26.648438 16.429688 -28.804688 16.328125 -29.015625 C 16.273438 -29.117188 16.25 -29.332031 16.25 -29.65625 C 16.25 -29.863281 16.25 -30.070312 16.25 -30.28125 C 16.09375 -30.8125 15.828125 -31.078125 15.453125 -31.078125 C 15.398438 -31.078125 15.253906 -31.0625 15.015625 -31.03125 C 14.785156 -31 14.144531 -30.59375 13.09375 -29.8125 C 11.507812 -28.707031 10.570312 -27.300781 10.28125 -25.59375 C 10 -23.882812 9.59375 -20.691406 9.0625 -16.015625 C 9.113281 -15.117188 9.140625 -14.351562 9.140625 -13.71875 C 9.140625 -12.988281 9.085938 -12.453125 8.984375 -12.109375 C 8.878906 -11.765625 8.695312 -11.410156 8.4375 -11.046875 C 8.019531 -10.566406 7.441406 -10.328125 6.703125 -10.328125 C 6.597656 -10.328125 6.492188 -10.328125 6.390625 -10.328125 C 5.859375 -10.328125 5.515625 -10.195312 5.359375 -9.9375 C 5.304688 -9.726562 5.226562 -9.625 5.125 -9.625 C 5.125 -9.625 5.097656 -9.632812 5.046875 -9.65625 C 4.992188 -9.6875 4.835938 -9.832031 4.578125 -10.09375 C 3.941406 -10.613281 3.625 -12.085938 3.625 -14.515625 C 3.625 -16.085938 3.753906 -18.082031 4.015625 -20.5 C 4.234375 -22.394531 4.351562 -24.078125 4.375 -25.546875 C 4.40625 -27.023438 4.421875 -27.894531 4.421875 -28.15625 C 4.421875 -30.257812 4.3125 -31.546875 4.09375 -32.015625 C 3.988281 -32.273438 3.910156 -32.414062 3.859375 -32.4375 C 3.804688 -32.46875 3.78125 -32.484375 3.78125 -32.484375 C 3.675781 -32.484375 3.546875 -32.429688 3.390625 -32.328125 C 3.234375 -32.171875 3.078125 -32.09375 2.921875 -32.09375 C 2.867188 -32.09375 2.789062 -32.101562 2.6875 -32.125 C 2.582031 -32.15625 2.515625 -32.234375 2.484375 -32.359375 C 2.453125 -32.492188 2.4375 -32.617188 2.4375 -32.734375 C 2.4375 -32.890625 2.46875 -33.097656 2.53125 -33.359375 C 2.632812 -33.929688 3.050781 -34.46875 3.78125 -34.96875 C 4.519531 -35.46875 5.175781 -35.71875 5.75 -35.71875 C 6.488281 -35.71875 7.144531 -35.320312 7.71875 -34.53125 C 8.300781 -33.75 8.773438 -32.675781 9.140625 -31.3125 C 9.460938 -29.9375 9.703125 -29.25 9.859375 -29.25 C 10.015625 -29.25 10.09375 -29.332031 10.09375 -29.5 C 10.09375 -29.757812 10.929688 -30.625 12.609375 -32.09375 C 14.296875 -33.5625 15.429688 -34.429688 16.015625 -34.703125 C 16.484375 -34.960938 16.898438 -35.09375 17.265625 -35.09375 C 17.421875 -35.09375 17.554688 -35.066406 17.671875 -35.015625 C 18.140625 -34.859375 18.597656 -34.4375 19.046875 -33.75 C 19.492188 -33.070312 19.847656 -32.3125 20.109375 -31.46875 C 20.367188 -30.625 20.5 -30.203125 20.5 -30.203125 C 20.601562 -30.203125 21.550781 -31.125 23.34375 -32.96875 C 25.65625 -34.851562 27.128906 -35.984375 27.765625 -36.359375 Z M 27.765625 -36.359375 "/></g></g></g><g clip-path="url(#010cad79d7)"><g clip-path="url(#7948f3034d)"><g clip-path="url(#a8c8bea282)"><path fill="#ffffff" d="M 80.441406 278.582031 C 80.441406 278.582031 93.496094 268.839844 103.058594 283.460938 C 88.3125 292.839844 80.441406 278.582031 80.441406 278.582031 Z M 80.441406 278.582031 " fill-opacity="1" fill-rule="nonzero"/></g></g></g><g clip-path="url(#147329c4e0)"><g clip-path="url(#7e15589719)"><g clip-path="url(#b3db79c463)"><path fill="#ffffff" d="M 104.371094 283.746094 L 103.566406 284.257812 C 98.808594 287.285156 94.226562 288.261719 89.9375 287.167969 C 83.226562 285.453125 79.761719 279.296875 79.617188 279.035156 L 79.21875 278.316406 L 79.878906 277.824219 C 79.878906 277.824219 80.0625 277.683594 80.40625 277.460938 C 82.738281 275.957031 94.832031 269.15625 103.847656 282.945312 Z M 81.738281 278.855469 C 82.828125 280.449219 85.792969 284.167969 90.421875 285.34375 C 93.933594 286.234375 97.730469 285.503906 101.71875 283.171875 C 94.222656 272.59375 84.914062 276.90625 81.738281 278.855469 Z M 81.738281 278.855469 " fill-opacity="1" fill-rule="nonzero"/></g></g></g><g clip-path="url(#1816f2acb7)"><g clip-path="url(#1ffdc27f8a)"><g clip-path="url(#cb0d60dd99)"><path fill="#ffffff" d="M 87.390625 253.640625 C 87.390625 253.640625 103.507812 255.980469 99.929688 273.085938 C 82.875 269.289062 87.390625 253.640625 87.390625 253.640625 Z M 87.390625 253.640625 " fill-opacity="1" fill-rule="nonzero"/></g></g></g><g clip-path="url(#3d3905d51d)"><g clip-path="url(#ade141b93c)"><g clip-path="url(#82edb27fc7)"><path fill="#ffffff" d="M 100.65625 274.214844 L 99.722656 274.007812 C 94.222656 272.78125 90.289062 270.230469 88.03125 266.425781 C 84.496094 260.46875 86.398438 253.664062 86.480469 253.378906 L 86.710938 252.589844 L 87.523438 252.707031 C 87.820312 252.75 94.800781 253.820312 98.773438 259.5 C 101.308594 263.125 102.007812 267.761719 100.851562 273.277344 Z M 88.109375 254.753906 C 87.753906 256.652344 87.222656 261.378906 89.664062 265.476562 C 91.515625 268.59375 94.71875 270.761719 99.1875 271.933594 C 99.960938 267.378906 99.304688 263.570312 97.234375 260.59375 C 94.507812 256.683594 89.984375 255.214844 88.109375 254.753906 Z M 88.109375 254.753906 " fill-opacity="1" fill-rule="nonzero"/></g></g></g><g clip-path="url(#751c060b23)"><g clip-path="url(#4326f84632)"><g clip-path="url(#d192432747)"><path fill="#ffffff" d="M 113.359375 257.351562 C 113.359375 257.351562 99.101562 265.222656 108.476562 279.96875 C 123.101562 270.402344 113.359375 257.351562 113.359375 257.351562 Z M 113.359375 257.351562 " fill-opacity="1" fill-rule="nonzero"/></g></g></g><g clip-path="url(#f352dfb944)"><g clip-path="url(#bea08a33bb)"><g clip-path="url(#042422e9c4)"><path fill="#ffffff" d="M 108.191406 281.28125 L 107.679688 280.472656 C 98.835938 266.570312 110.023438 258.363281 112.355469 256.859375 C 112.699219 256.636719 112.902344 256.527344 112.902344 256.527344 L 113.621094 256.128906 L 114.117188 256.789062 C 114.292969 257.027344 118.472656 262.722656 117.265625 269.542969 C 116.492188 273.902344 113.710938 277.671875 108.992188 280.757812 Z M 113.078125 258.644531 C 109.988281 260.730469 102.222656 267.433594 108.765625 278.628906 C 112.539062 275.953125 114.773438 272.789062 115.40625 269.214844 C 116.238281 264.503906 114.078125 260.285156 113.078125 258.644531 Z M 113.078125 258.644531 " fill-opacity="1" fill-rule="nonzero"/></g></g></g><path fill="#ffffff" d="M 211.136719 115.152344 L 238.027344 98.738281 L 250.078125 122.464844 C 252.988281 135.429688 237.039062 140.1875 224.234375 139.414062 Z M 211.136719 115.152344 " fill-opacity="1" fill-rule="evenodd"/><g clip-path="url(#5d5e2486fb)"><path fill="#ffffff" d="M 205.027344 132.101562 L 190.882812 157.613281 L 205.027344 183.480469 L 205.375 173.132812 L 218.296875 173.132812 C 223.011719 173.550781 229.125 170.398438 231.394531 165.820312 L 247.980469 134.773438 C 242.511719 140.304688 235.476562 141.734375 227.378906 141.734375 L 205.550781 141.734375 L 205.027344 132.097656 Z M 205.027344 132.101562 " fill-opacity="1" fill-rule="evenodd"/></g><path fill="#ffffff" d="M 173.425781 100.644531 L 146.328125 84.589844 L 160.785156 62.3125 C 170.464844 53.417969 182.277344 65.355469 187.832031 77.167969 Z M 173.425781 100.644531 " fill-opacity="1" fill-rule="evenodd"/><path fill="#ffffff" d="M 190.894531 97.878906 L 219.59375 98.128906 L 234.863281 72.9375 L 225.839844 77.648438 L 219.566406 66.105469 C 217.636719 61.691406 211.972656 57.761719 206.953125 57.957031 L 172.335938 58.207031 C 179.722656 60.410156 184.359375 66 188.289062 73.234375 L 198.882812 92.734375 Z M 190.894531 97.878906 " fill-opacity="1" fill-rule="evenodd"/><path fill="#ffffff" d="M 125.589844 99.316406 L 133.988281 105.875 L 126.085938 121.015625 C 122.132812 127.996094 128.921875 134.796875 133.246094 137.160156 C 137.503906 139.492188 144.113281 139.769531 150.285156 139.683594 L 161.398438 121.519531 L 169.796875 126.058594 L 155.226562 99.0625 L 125.59375 99.316406 Z M 125.589844 99.316406 " fill-opacity="1" fill-rule="evenodd"/><path fill="#ffffff" d="M 126.828125 134.386719 L 144.851562 167.691406 C 148.472656 172.316406 155.308594 173.410156 162.386719 173.242188 L 181.402344 173.242188 L 181.402344 141.707031 L 145.347656 141.453125 C 139.75 141.789062 132.421875 140.613281 126.828125 134.386719 Z M 126.828125 134.386719 " fill-opacity="1" fill-rule="evenodd"/><g fill="#ffffff" fill-opacity="1"><g transform="translate(73.920127, 236.899132)"><g><path d="M 3.757812 0 L 14.015625 0 L 14.015625 -10.105469 L 17.875 -10.105469 L 22.953125 0 L 34.578125 0 L 28.027344 -11.984375 C 31.785156 -14.066406 33.917969 -17.824219 33.917969 -22.800781 C 33.917969 -30.667969 28.585938 -35.542969 19.957031 -35.542969 L 3.757812 -35.542969 Z M 13.8125 -18.28125 L 13.8125 -27.164062 L 18.585938 -27.164062 C 21.835938 -27.164062 23.613281 -25.589844 23.613281 -22.75 C 23.613281 -19.90625 21.835938 -18.28125 18.585938 -18.28125 Z M 13.8125 -18.28125 "/></g></g></g><g fill="#ffffff" fill-opacity="1"><g transform="translate(110.479758, 236.899132)"><g><path d="M 16.757812 0.761719 C 23.714844 0.761719 29.042969 -2.691406 31.429688 -8.683594 L 21.988281 -8.683594 C 20.921875 -7.414062 19.042969 -6.601562 16.960938 -6.601562 C 14.21875 -6.601562 11.933594 -8.074219 11.222656 -11.019531 L 31.9375 -11.019531 C 32.445312 -21.023438 26.402344 -27.621094 16.808594 -27.621094 C 7.820312 -27.621094 1.574219 -21.835938 1.574219 -13.457031 C 1.574219 -5.027344 7.769531 0.761719 16.757812 0.761719 Z M 11.273438 -16.300781 C 12.085938 -18.890625 14.21875 -20.3125 16.910156 -20.3125 C 19.855469 -20.3125 21.835938 -18.789062 22.648438 -16.300781 Z M 11.273438 -16.300781 "/></g></g></g><g fill="#ffffff" fill-opacity="1"><g transform="translate(143.941983, 236.899132)"><g><path d="M 16.859375 0.761719 C 24.929688 0.761719 30.820312 -3.910156 32.089844 -11.273438 L 22.851562 -11.273438 C 21.886719 -8.835938 19.703125 -7.3125 16.960938 -7.3125 C 13.507812 -7.3125 11.121094 -9.800781 11.121094 -13.457031 C 11.121094 -17.0625 13.507812 -19.550781 16.960938 -19.550781 C 19.5 -19.550781 21.582031 -18.28125 22.699219 -16.097656 L 31.835938 -16.097656 C 30.667969 -23.105469 24.777344 -27.621094 16.859375 -27.621094 C 7.871094 -27.621094 1.574219 -21.734375 1.574219 -13.457031 C 1.574219 -5.078125 7.820312 0.761719 16.859375 0.761719 Z M 16.859375 0.761719 "/></g></g></g><g fill="#ffffff" fill-opacity="1"><g transform="translate(177.505754, 236.899132)"><g><path d="M 3.402344 0 L 13.152344 0 L 13.152344 -26.859375 L 3.402344 -26.859375 Z M 2.4375 -36.050781 C 2.4375 -32.699219 4.875 -30.363281 8.277344 -30.363281 C 11.679688 -30.363281 14.117188 -32.699219 14.117188 -36.050781 C 14.117188 -39.402344 11.679688 -41.6875 8.277344 -41.6875 C 4.875 -41.6875 2.4375 -39.402344 2.4375 -36.050781 Z M 2.4375 -36.050781 "/></g></g></g><g fill="#ffffff" fill-opacity="1"><g transform="translate(194.05914, 236.899132)"><g><path d="M 16.859375 0.761719 C 24.929688 0.761719 30.820312 -3.910156 32.089844 -11.273438 L 22.851562 -11.273438 C 21.886719 -8.835938 19.703125 -7.3125 16.960938 -7.3125 C 13.507812 -7.3125 11.121094 -9.800781 11.121094 -13.457031 C 11.121094 -17.0625 13.507812 -19.550781 16.960938 -19.550781 C 19.5 -19.550781 21.582031 -18.28125 22.699219 -16.097656 L 31.835938 -16.097656 C 30.667969 -23.105469 24.777344 -27.621094 16.859375 -27.621094 C 7.871094 -27.621094 1.574219 -21.734375 1.574219 -13.457031 C 1.574219 -5.078125 7.820312 0.761719 16.859375 0.761719 Z M 16.859375 0.761719 "/></g></g></g><g fill="#ffffff" fill-opacity="1"><g transform="translate(227.622911, 236.899132)"><g><path d="M 3.402344 0 L 13.152344 0 L 13.152344 -37.574219 L 3.402344 -37.574219 Z M 3.402344 0 "/></g></g></g><g fill="#ffffff" fill-opacity="1"><g transform="translate(244.176297, 236.899132)"><g><path d="M 12.339844 0.609375 C 16.199219 0.609375 19.449219 -0.660156 21.734375 -2.945312 L 22.800781 0 L 29.804688 0 L 29.804688 -15.640625 C 29.804688 -23.308594 24.980469 -27.621094 16.351562 -27.621094 C 8.835938 -27.621094 4.316406 -24.222656 3.503906 -18.027344 L 12.644531 -18.027344 C 12.898438 -19.601562 14.421875 -20.667969 16.402344 -20.667969 C 18.585938 -20.667969 20.3125 -19.398438 20.3125 -17.621094 L 20.3125 -16.097656 L 11.273438 -16.097656 C 5.738281 -16.097656 2.183594 -12.796875 2.183594 -7.871094 C 2.183594 -2.640625 6.144531 0.609375 12.339844 0.609375 Z M 11.730469 -8.328125 C 11.730469 -9.851562 13.050781 -10.765625 15.132812 -10.765625 L 20.414062 -10.765625 C 20.414062 -7.820312 18.179688 -5.839844 15.234375 -5.839844 C 13.152344 -5.839844 11.730469 -6.804688 11.730469 -8.328125 Z M 11.730469 -8.328125 "/></g></g></g><g fill="#ffffff" fill-opacity="1"><g transform="translate(276.876863, 236.899132)"><g><path d="M 3.402344 0 L 13.152344 0 L 13.152344 -11.476562 C 13.152344 -16.046875 15.132812 -18.128906 19.5 -18.128906 L 22.597656 -18.128906 L 22.597656 -26.859375 L 19.449219 -26.859375 C 15.691406 -26.859375 13.304688 -25.84375 11.628906 -23.511719 L 10.410156 -26.859375 L 3.402344 -26.859375 Z M 3.402344 0 "/></g></g></g></svg>